<?xml version="1.0" encoding="UTF-8"?>
<!DOCTYPE svg PUBLIC "-//W3C//DTD SVG 1.1//EN" "http://www.w3.org/Graphics/SVG/1.1/DTD/svg11.dtd">
<!-- Creator: CorelDRAW 2019 (64-Bit) -->
<svg xmlns="http://www.w3.org/2000/svg" xml:space="preserve" width="24.5902in" height="16.6699in" version="1.1" style="shape-rendering:geometricPrecision; text-rendering:geometricPrecision; image-rendering:optimizeQuality; fill-rule:evenodd; clip-rule:evenodd"
viewBox="0 0 16120.32 10928.13"
 xmlns:xlink="http://www.w3.org/1999/xlink"
 xmlns:xodm="http://www.corel.com/coreldraw/odm/2003">
 <defs>
  <style type="text/css">
   <![CDATA[
    .fil0 {fill:#FEFEFE}
    .fil1 {fill:#282828}
    .fil2 {fill:#C80000}
    .fil3 {fill:white}
   ]]>
  </style>
 </defs>
 <g id="Layer_x0020_1">
  <metadata id="CorelCorpID_0Corel-Layer"/>
  <path class="fil0" d="M8035.8 10928.13c3009.49,0 5464.04,-2454.58 5464.04,-5464.07 0,-3009.54 -2454.56,-5464.06 -5464.04,-5464.06 -3009.49,0 -5464.04,2454.51 -5464.04,5464.06 0,3009.49 2454.55,5464.07 5464.04,5464.07z"/>
  <path class="fil1" d="M8038.77 10870.86c2970.37,0 5393.02,-2422.69 5393.02,-5392.95 0,-2970.4 -2422.65,-5393.03 -5393.02,-5393.03 -2970.33,0 -5392.97,2422.63 -5392.97,5393.03 0,2970.26 2422.63,5392.95 5392.97,5392.95z"/>
  <path class="fil2" d="M8038.77 10695.45c2873.79,0 5217.58,-2343.85 5217.58,-5217.54 0,-2873.78 -2343.79,-5217.59 -5217.58,-5217.59 -2873.72,0 -5217.53,2343.81 -5217.53,5217.59 0,2873.69 2343.81,5217.54 5217.53,5217.54z"/>
  <path class="fil1" d="M8038.77 10274.38c2641.89,0 4796.61,-2154.69 4796.61,-4796.48 0,-2641.87 -2154.72,-4796.63 -4796.61,-4796.63 -2641.82,0 -4796.51,2154.76 -4796.51,4796.63 0,2641.79 2154.69,4796.48 4796.51,4796.48z"/>
  <path class="fil3" d="M6003.81 2820.9l-15.82 247.6 -690.39 114.65 0 -41.61c11.72,-2.73 27.35,-6.98 46.89,-12.77 19.54,-5.78 32.23,-10.53 38.09,-14.24 12.5,-7.94 21.19,-17 26.08,-27.19 4.89,-10.19 7.33,-22.51 7.33,-36.97l0 -597.79c0,-12.89 -2.15,-23.96 -6.45,-33.21 -4.3,-9.25 -13.28,-15.86 -26.96,-19.84 -10.55,-3.33 -24.71,-5.47 -42.49,-6.42 -17.78,-0.95 -31.94,-0.95 -42.49,0.02l0 -41.61 643.5 -106.86 0 200.44 -43.96 7.3c-7.82,-28.4 -24.71,-57.14 -50.69,-86.23 -25.98,-29.09 -50.69,-43.25 -74.14,-42.48 -12.11,0.45 -26.57,1.68 -43.37,3.69 -16.8,2.01 -35.94,4.8 -57.43,8.36l-130.69 21.71 0 330.54 93.77 -15.57c30.08,-4.99 52.06,-11.48 65.93,-19.45 13.87,-7.97 26.08,-19.47 36.63,-34.51 8.59,-12.76 15.92,-29.11 21.98,-49.07 6.05,-19.96 10.06,-38.49 12.01,-55.62l43.96 -7.3 0 325.85 -43.96 7.3c-1.56,-18.5 -5.76,-37.63 -12.6,-57.39 -6.84,-19.77 -13.97,-33.73 -21.39,-41.87 -12.11,-13.23 -25.88,-20.9 -41.32,-23.03 -15.43,-2.12 -35.85,-1.08 -61.24,3.14l-93.77 15.57 0 249.26c0,24.96 1.76,44.37 5.27,58.22 3.52,13.85 10.35,23.63 20.51,29.36 10.16,5.72 24.03,8.2 41.61,7.43 17.58,-0.77 42.59,-3.85 75.02,-9.24 12.89,-2.14 29.89,-4.96 50.99,-8.47 21.1,-3.5 38.88,-7.24 53.33,-11.2 14.85,-4.03 30.18,-9.41 46.01,-16.14 15.82,-6.73 27.06,-14.16 33.7,-22.3 17.97,-21.74 36.82,-53.29 56.56,-94.66 19.73,-41.37 32.33,-71.5 37.8,-90.38l42.2 -7.01z"/>
  <path class="fil3" d="M6455.08 2707.86c16.02,11.41 28.33,25.57 36.92,42.51 8.59,16.94 12.89,38.69 12.89,65.26 0,53.53 -20.03,100.61 -60.07,141.26 -40.05,40.64 -91.92,66.25 -155.6,76.83 -33.6,5.58 -64.56,4.66 -92.89,-2.74 -28.33,-7.41 -48.55,-15.19 -60.66,-23.33l-11.72 40.04 -43.96 7.3 -5.86 -200.05 40.44 -6.72c3.13,14.77 9.77,31.51 19.92,50.21 10.16,18.7 22.47,35.08 36.92,49.15 15.24,14.72 33.5,26.2 54.8,34.42 21.3,8.23 45.23,10.13 71.79,5.72 37.51,-6.23 66.42,-19.58 86.74,-40.05 20.32,-20.47 30.48,-46.62 30.48,-78.46 0,-16.41 -3.22,-30.04 -9.67,-40.88 -6.45,-10.85 -15.92,-19.72 -28.42,-26.64 -12.89,-6.84 -28.72,-12.32 -47.47,-16.44 -18.75,-4.11 -39.66,-7.77 -62.71,-10.98 -18.36,-2.42 -38.78,-6.55 -61.24,-12.39 -22.47,-5.84 -41.71,-13.88 -57.73,-24.11 -17.19,-10.82 -31.26,-25.29 -42.2,-43.39 -10.94,-18.11 -16.41,-40.64 -16.41,-67.61 0,-47.28 17.58,-90.24 52.74,-128.9 35.17,-38.66 82.24,-62.89 141.24,-72.68 22.66,-3.76 45.81,-4.68 69.45,-2.74 23.64,1.93 42.88,5.77 57.73,11.51l13.48 -32.71 42.2 -7.01 8.79 184.32 -40.44 6.72c-8.2,-40.22 -25.88,-71.13 -53.04,-92.71 -27.15,-21.58 -60.27,-29.13 -99.34,-22.64 -32.04,5.32 -57.24,17.57 -75.6,36.75 -18.36,19.18 -27.54,40.19 -27.54,63.01 0,17.58 3.03,31.73 9.08,42.45 6.05,10.72 15.14,19.17 27.25,25.36 11.72,5.87 26.47,10.74 44.25,14.63 17.78,3.89 39.75,7.95 65.93,12.2 25.79,3.92 50.11,9.46 72.97,16.6 22.85,7.14 41.71,16.13 56.55,26.95z"/>
  <path class="fil3" d="M6949.14 2883.68c-25.4,14.77 -49.43,27.65 -72.09,38.64 -22.66,10.99 -50.4,19.22 -83.22,24.66 -48.45,8.04 -82.54,1.5 -102.27,-19.64 -19.73,-21.15 -29.6,-53.99 -29.6,-98.53l0 -391.49 -104.32 17.33 0 -56.26 106.67 -17.71 0 -179.92 106.66 -17.71 0 179.92 165.86 -27.54 0 56.26 -164.68 27.35 0 322.92c0,24.22 0.88,44.3 2.64,60.22 1.76,15.92 5.96,29.39 12.6,40.4 6.25,10.29 15.63,17.33 28.13,21.11 12.5,3.78 29.3,3.92 50.4,0.42 9.77,-1.62 24.13,-4.89 43.08,-9.79 18.95,-4.9 32.33,-9.37 40.15,-13.41l0 42.78z"/>
  <path class="fil3" d="M7207.59 2798.56c0,21.88 -7.91,41.85 -23.74,59.91 -15.82,18.06 -34.67,28.91 -56.55,32.54 -21.88,3.63 -40.73,-0.95 -56.56,-13.76 -15.82,-12.8 -23.73,-30.15 -23.73,-52.03 0,-21.88 7.91,-42.05 23.73,-60.5 15.82,-18.45 34.67,-29.5 56.56,-33.13 21.88,-3.63 40.73,1.15 56.55,14.34 15.82,13.2 23.74,30.73 23.74,52.61z"/>
  <path class="fil3" d="M8051.53 2725.81l-395.01 65.6 0 -41.61c11.72,-2.73 29.99,-7.42 54.8,-14.08 24.81,-6.66 41.9,-12.14 51.28,-16.43 12.11,-5.92 21.39,-13.81 27.84,-23.67 6.45,-9.86 9.67,-23.58 9.67,-41.17l0 -411.42 -145.93 24.24 0 -49.23 32.23 -5.35c42.2,-7.01 80,-21.1 113.4,-42.28 33.41,-21.17 57.34,-41.95 71.79,-62.32l48.64 -8.08c-1.17,25.59 -2.34,55.48 -3.52,89.67 -1.17,34.19 -1.76,64.76 -1.76,91.72l0 347.54c0,13.68 3.03,25.38 9.08,35.12 6.06,9.74 14.75,16.21 26.08,19.4 10.16,2.61 26.76,3.76 49.81,3.45 23.05,-0.31 40.24,-1.21 51.57,-2.7l0 41.61z"/>
  <path class="fil3" d="M8712.03 2314.06c0,67.94 -10.74,133.66 -32.23,197.17 -21.49,63.5 -52.35,121.24 -92.6,173.22 -39.46,51.06 -87.62,96.06 -144.46,134.97 -56.85,38.92 -120.44,68.9 -190.77,89.95l-10.55 -50.99 52.75 -18.14c84,-40.51 149.64,-92.23 196.92,-155.16 47.28,-62.93 77.75,-137.91 91.43,-224.94 -32.04,32.64 -63.98,57.94 -95.82,75.92 -31.84,17.97 -67.69,30.27 -107.54,36.89 -63.68,10.58 -119.07,-5.01 -166.15,-46.76 -47.08,-41.75 -70.62,-100.29 -70.62,-175.61 0,-80.79 27.25,-153.42 81.76,-217.9 54.5,-64.47 121.81,-103.36 201.9,-116.66 87.13,-14.47 156.58,5.04 208.35,58.52 51.77,53.48 77.65,133.33 77.65,239.52zm-124.24 13.84c0,-91.43 -14.95,-160.55 -44.84,-207.35 -29.89,-46.81 -69.25,-66.15 -118.09,-58.04 -46.5,7.72 -84,33.97 -112.53,78.76 -28.52,44.78 -42.78,102.34 -42.78,172.67 0,63.3 14.55,111.67 43.66,145.13 29.11,33.46 68.08,46.13 116.92,38.02 30.48,-5.06 58.41,-15.27 83.81,-30.62 25.4,-15.35 49.04,-37.16 70.91,-65.4 0,-1.56 0.29,-4.74 0.88,-9.52 0.59,-4.79 0.88,-11.47 0.88,-20.07 0,-5.47 0.19,-12.14 0.58,-20.02 0.39,-7.88 0.59,-15.73 0.59,-23.54z"/>
  <path class="fil3" d="M9391.28 2201.26c0,67.94 -10.74,133.66 -32.23,197.17 -21.49,63.5 -52.36,121.24 -92.6,173.22 -39.46,51.06 -87.62,96.06 -144.47,134.97 -56.85,38.92 -120.44,68.9 -190.77,89.95l-10.55 -50.99 52.75 -18.13c84,-40.51 149.64,-92.23 196.92,-155.16 47.28,-62.93 77.75,-137.91 91.43,-224.94 -32.04,32.64 -63.98,57.95 -95.82,75.92 -31.84,17.97 -67.69,30.27 -107.54,36.89 -63.69,10.57 -119.07,-5.01 -166.15,-46.76 -47.08,-41.75 -70.62,-100.29 -70.62,-175.61 0,-80.79 27.25,-153.42 81.76,-217.9 54.5,-64.48 121.81,-103.36 201.9,-116.66 87.13,-14.47 156.58,5.04 208.35,58.52 51.77,53.48 77.66,133.32 77.66,239.52zm-124.25 13.84c0,-91.42 -14.94,-160.54 -44.83,-207.35 -29.89,-46.81 -69.25,-66.15 -118.09,-58.04 -46.49,7.72 -84,33.98 -112.52,78.76 -28.52,44.78 -42.78,102.34 -42.78,172.67 0,63.3 14.56,111.67 43.66,145.13 29.11,33.45 68.08,46.13 116.92,38.02 30.48,-5.06 58.41,-15.27 83.81,-30.62 25.4,-15.35 49.03,-37.15 70.91,-65.4 0,-1.56 0.29,-4.74 0.88,-9.52 0.59,-4.79 0.88,-11.48 0.88,-20.07 0,-5.47 0.2,-12.15 0.59,-20.02 0.39,-7.88 0.59,-15.73 0.59,-23.54z"/>
  <path class="fil3" d="M10106.28 2164.23c0,65.64 -28.33,126.8 -84.98,183.48 -56.65,56.69 -131.08,92.68 -223.29,108 -86.35,14.34 -155.5,4.14 -207.47,-30.6 -51.96,-34.74 -77.95,-86.3 -77.95,-154.67 0,-50.4 15.34,-95.05 46.01,-133.94 30.67,-38.89 76.09,-75.05 136.26,-108.49 -49.62,-19.5 -86.74,-43.81 -111.35,-72.93 -24.61,-29.12 -36.92,-64.59 -36.92,-106.39 0,-63.68 27.06,-121.51 81.17,-173.48 54.11,-51.96 118.88,-84.21 194.28,-96.73 75.41,-12.52 136.45,-2.34 183.14,30.54 46.69,32.88 70.04,79.99 70.04,141.33 0,39.46 -12.89,79.02 -38.68,118.66 -25.79,39.64 -63.69,74.95 -113.7,105.91 64.86,16.97 111.64,39.87 140.36,68.7 28.72,28.83 43.08,69.03 43.08,120.61zm-141.83 -401.93c0,-47.67 -14.16,-84.09 -42.49,-109.28 -28.33,-25.18 -64.56,-34.11 -108.71,-26.78 -44.15,7.33 -80.29,27.69 -108.42,61.08 -28.13,33.39 -42.2,71.38 -42.2,113.96 0,41.02 16.02,73.14 48.06,96.34 32.04,23.2 89.08,44.2 171.13,63.01 29.3,-23.62 50.4,-51.93 63.3,-84.94 12.89,-33.01 19.34,-70.81 19.34,-113.39zm24.61 448.94c0,-24.62 -5.28,-45.33 -15.82,-62.13 -10.55,-16.81 -25.79,-31.18 -45.71,-43.1 -19.15,-11.67 -45.81,-22.77 -80,-33.31 -34.19,-10.54 -71.21,-20.9 -111.06,-31.08 -37.51,26.55 -65.05,57 -82.64,91.38 -17.58,34.37 -26.37,71.68 -26.37,111.92 0,57.43 16.9,101.03 50.69,130.77 33.8,29.75 78.83,39.95 135.09,30.61 53.92,-8.96 96.7,-31.69 128.35,-68.2 31.65,-36.51 47.47,-78.8 47.47,-126.85z"/>
  <polygon class="fil3" points="-0,8885.32 16120.32,6267.34 16120.32,2098.37 -0,4716.35 "/>
  <polygon class="fil1" points="85.97,8784.25 16034.35,6194.2 16034.35,2199.44 85.97,4789.48 "/>
  <path class="fil2" d="M2567.26 8094.43l0 6.26 10985.81 -1784.12 0 -6.26 2209.1 -358.76 0 -3421.04 -15404.13 2501.66 0 3421.04 2209.22 -358.78zm10872.36 -2098.07l-10758.95 1747.28 0 -866.94 10758.95 -1747.27 0 866.94z"/>
  <polygon class="fil1" points="679.55,8061.97 15440.72,5664.73 15440.72,2921.72 679.55,5318.97 "/>
  <path class="fil3" d="M8207.27 6509.23l0 76.86 613.84 -99.69 0 -76.86c-8.64,1.4 -20.72,2.83 -36.26,4.29 -15.54,1.46 -31.08,1.31 -46.62,-0.43 -15.54,-1.74 -28.92,-6.51 -40.15,-14.29 -11.22,-7.79 -16.83,-20.22 -16.83,-37.3l0 -1786.88 248.64 -40.38c6.91,-1.12 12.95,3.23 18.13,13.07 5.18,9.83 9.5,21.41 12.95,34.72 3.46,13.32 6.04,26.24 7.77,38.77 1.73,12.53 3.45,19.72 5.18,21.57l85.47 -13.88 0 -371.47 -1098.17 178.34 0 371.47 82.88 -13.46c0,-6.41 1.3,-16.22 3.88,-29.45 2.59,-13.23 6.04,-26.6 10.36,-40.11 4.32,-13.51 9.93,-25.63 16.84,-36.36 6.91,-10.73 14.68,-16.79 23.31,-18.19l235.69 -38.28 0 1809.3c0,4.27 -4.32,9.77 -12.95,16.51 -8.63,6.74 -15.54,11.6 -20.72,14.57 -8.63,3.54 -24.6,9.87 -47.92,18.99 -23.31,9.12 -38.42,15.31 -45.33,18.57z"/>
  <path class="fil3" d="M8963.56 6418.43c0,4.27 0.43,10.61 1.3,19 0.86,8.4 1.3,12.6 1.3,12.6 0,8.54 2.59,12.39 7.77,11.55l613.84 -99.69c0,-34.16 -6.48,-56.59 -19.42,-67.3 -12.95,-10.71 -26.76,-16.47 -41.44,-17.29 -14.68,-0.82 -28.49,-0.71 -41.44,0.33 -12.95,1.03 -19.42,-4.85 -19.42,-17.66l139.86 -659.97 385.91 -62.67 139.86 611.34 0 9.61c0,12.81 -6.04,20.2 -18.13,22.16 -8.64,1.4 -18.56,3.55 -29.79,6.44 -11.22,2.89 -22.02,8.38 -32.38,16.46 -10.36,8.09 -19.42,19.17 -27.2,33.24 -7.77,14.07 -11.66,32.85 -11.66,56.33l606.07 -98.43c3.45,-0.56 5.61,-9.45 6.48,-26.67 0.86,-17.22 1.29,-30.1 1.29,-38.64 -10.36,-4.72 -23.31,-8.49 -38.85,-11.3 -15.54,-2.81 -31.08,-6.69 -46.62,-11.64 -15.54,-4.95 -29.78,-11.71 -42.74,-20.28 -12.95,-8.57 -21.15,-21.12 -24.6,-37.63l-427.36 -1816.75c0,-8.54 6.04,-17.53 18.13,-26.96 12.09,-9.44 25.47,-17.48 40.15,-24.13 14.68,-6.65 29.35,-13.84 44.03,-21.56 14.68,-7.72 24.6,-15.2 29.78,-22.45 0,0 0.43,-0.6 1.3,-1.81 0.86,-1.21 1.3,-3.95 1.3,-8.22 0,-10.67 -0.86,-21.74 -2.59,-33.2 -1.73,-11.46 -4.32,-16.91 -7.77,-16.35l-758.88 123.24 0 76.86c6.91,3.15 20.72,5.17 41.44,6.08 20.72,0.9 35.4,1.72 44.03,2.45l5.18 -0.84c6.91,3.15 15.97,5.41 27.2,6.79 11.22,1.38 16.84,7.41 16.84,18.08l0 9.61 -409.22 1955.81c-3.45,15.51 -12.09,29.18 -25.9,41.03 -13.82,11.85 -28.92,22.31 -45.33,31.38 -16.4,9.07 -33.67,16.68 -51.8,22.82 -18.13,6.15 -32.38,11.13 -42.74,14.95l-5.18 0.84 -2.59 32.44zm683.77 -1052.52l145.04 -769.69 165.76 719.22 -310.8 50.47z"/>
  <path class="fil3" d="M10776.57 6091.97l0 76.86 613.84 -99.69 0 -76.86c-8.63,1.4 -20.72,2.83 -36.26,4.29 -15.54,1.46 -31.08,1.31 -46.62,-0.44 -15.54,-1.74 -28.92,-6.51 -40.15,-14.29 -11.22,-7.78 -16.84,-20.22 -16.84,-37.29l0 -1786.88 248.64 -40.38c6.91,-1.12 12.95,3.23 18.13,13.07 5.18,9.83 9.5,21.41 12.95,34.72 3.45,13.32 6.04,26.24 7.77,38.77 1.73,12.53 3.45,19.72 5.18,21.58l85.47 -13.88 0 -371.47 -1098.17 178.35 0 371.47 82.88 -13.46c0,-6.4 1.29,-16.22 3.88,-29.45 2.59,-13.23 6.04,-26.6 10.36,-40.11 4.32,-13.51 9.93,-25.63 16.84,-36.36 6.91,-10.73 14.68,-16.79 23.31,-18.2l235.69 -38.28 0 1809.3c0,4.27 -4.32,9.77 -12.95,16.51 -8.63,6.74 -15.54,11.6 -20.72,14.57 -8.63,3.54 -24.61,9.87 -47.92,18.99 -23.31,9.12 -38.42,15.31 -45.33,18.57z"/>
  <path class="fil3" d="M2037.82 6098.95l0 -473.94c0,-27.75 -5.18,-54.13 -15.54,-79.13 -10.36,-25 -24.17,-46.78 -41.44,-65.32 -17.27,-18.54 -36.69,-33 -58.28,-43.37 -21.58,-10.37 -42.74,-13.88 -63.46,-10.51l-606.07 98.43c-24.17,3.93 -50.08,13.47 -77.7,28.63 -27.63,15.16 -53.53,34.85 -77.7,59.05 -24.17,24.21 -44.46,51.52 -60.86,81.93 -16.4,30.42 -24.6,62.71 -24.6,96.86l0 858.22c0,23.48 6.47,42.18 19.42,56.09 12.95,13.91 28.92,24.12 47.92,30.65 18.99,6.52 39.28,10.17 60.87,10.93 21.58,0.77 41.87,-0.39 60.86,-3.48l505.05 -82.02 0 698.1 -367.78 59.73 0 -243.38c0,-23.48 5.61,-40.94 16.84,-52.37 11.22,-11.43 23.74,-21.47 37.56,-30.11l7.77 -4.47c6.91,-3.26 22.45,-8.98 46.62,-17.18 24.17,-8.19 39.71,-14.99 46.62,-20.38l0 -80.06 -481.74 78.24 0 477.14c0,27.75 5.61,54.06 16.83,78.92 11.22,24.86 25.47,46.57 42.74,65.11 17.27,18.54 36.69,33 58.28,43.37 21.58,10.37 42.74,13.88 63.46,10.51l606.07 -98.43c22.45,-3.64 47.92,-13.12 76.41,-28.42 28.49,-15.3 54.39,-34.45 77.7,-57.45 23.31,-23 43.17,-49.71 59.57,-80.12 16.4,-30.42 24.6,-63.78 24.6,-100.07l0 -858.22c0,-21.35 -6.48,-41.11 -19.42,-59.29 -12.95,-18.18 -29.36,-32.59 -49.21,-43.24 -19.86,-10.65 -40.58,-18.5 -62.16,-23.53 -21.58,-5.03 -40.14,-6.29 -55.69,-3.77l-497.28 80.76 0 -662.87 362.6 -58.89 0 243.38c0,12.81 -2.59,22.84 -7.77,30.08 -5.18,7.24 -11.22,14.63 -18.13,22.16l-51.8 37.23c-5.18,2.98 -18.13,8.28 -38.85,15.92 -20.72,7.63 -34.53,14.15 -41.44,19.54l0 76.86 479.15 -77.82z"/>
  <path class="fil3" d="M2164.74 7490.55l0 76.86 611.25 -99.27 0 -76.86 -101.01 -6.01 -28.49 -30.6 0 -1921.38 28.49 -39.85 101.01 -38.82 0 -76.85 -611.25 99.27 0 76.86c5.18,3.43 18.13,5.6 38.85,6.5 20.72,0.91 34.54,1.87 41.44,2.88 6.91,3.15 18.13,6.13 33.67,8.94 15.54,2.81 23.31,11.69 23.31,26.64l0 1902.17c0,14.94 -7.77,26.35 -23.31,34.21 -15.54,7.86 -26.76,14.49 -33.67,19.88 -6.9,3.25 -20.72,8.7 -41.44,16.34 -20.72,7.63 -33.67,14.01 -38.85,19.12z"/>
  <path class="fil3" d="M3685.08 7320.5c3.45,-0.56 14.68,-3.45 33.67,-8.67 18.99,-5.22 31.94,-10.53 38.85,-15.92 17.27,-4.94 36.26,-14.96 56.98,-30.07 20.72,-15.11 40.14,-32.67 58.28,-52.7 18.13,-20.02 33.24,-42.76 45.33,-68.2 12.09,-25.45 18.13,-50.98 18.13,-76.6l0 -983.11c0,-25.62 5.61,-44.14 16.84,-55.57 11.22,-11.43 24.6,-21.61 40.14,-30.54l7.77 -4.47c6.91,-3.25 20.29,-8.63 40.15,-16.13 19.86,-7.5 33.24,-13.94 40.14,-19.33l0 -76.86 -611.25 99.27 0 76.86 101.01 6.01 31.08 30.18 0 957.49 -362.6 58.89 0 -1626.77 18.13 -28.56 349.65 -56.78c31.08,-5.05 57.41,2.95 79,24 21.58,21.05 39.28,44.86 53.1,71.43 13.81,26.58 24.17,51.05 31.08,73.41 6.91,22.36 10.36,33.54 10.36,33.54l93.24 -15.14 0 -486.75 -789.96 128.29c-17.27,2.8 -36.69,10.76 -58.28,23.87 -21.58,13.11 -41.44,29.15 -59.57,48.1 -18.13,18.96 -33.67,40.69 -46.62,65.21 -12.95,24.52 -19.42,48.52 -19.42,72.01l0 1796.49c0,27.75 6.48,52.32 19.42,73.7 12.95,21.38 28.49,39.14 46.62,53.27 18.13,14.14 37.99,25.32 59.57,33.56 21.58,8.24 41.01,12.02 58.28,11.35 6.91,3.15 19.42,4.32 37.56,3.51 18.13,-0.81 28.92,-1.49 32.38,-2.06l530.95 -86.23z"/>
  <path class="fil3" d="M4658.93 5891.03l699.31 1157.74 238.28 -38.7 0 -2033.46c0,-10.67 5.61,-22.79 16.84,-36.36 11.22,-13.57 21.15,-23.18 29.79,-28.85 3.45,-0.56 9.93,-2.68 19.42,-6.36 9.5,-3.68 19.42,-7.43 29.78,-11.24 10.36,-3.82 20.29,-7.56 29.79,-11.24 9.5,-3.68 16.84,-7 22.02,-9.98l-10.36 -75.18 -505.06 82.03 0 1284.12 -663.04 -1176.44 -380.74 61.83 0 76.86c5.18,1.29 15.11,2.35 29.79,3.17 14.68,0.82 30.22,2.03 46.62,3.63 16.4,1.61 30.65,5.7 42.74,12.27 12.09,6.58 18.13,16.27 18.13,29.08l0 1886.15c0,17.08 -6.04,31.4 -18.13,42.97 -12.09,11.57 -26.33,20.82 -42.74,27.76 -16.4,6.93 -31.94,12.13 -46.62,15.58 -14.68,3.45 -24.61,5.6 -29.79,6.44l0 86.46 600.89 -97.59 0 -76.86c0,-4.27 -7.34,-6.81 -22.02,-7.63 -14.68,-0.82 -30.22,-2.03 -46.62,-3.64 -16.4,-1.61 -31.94,-5.49 -46.62,-11.64 -14.68,-6.16 -22.02,-17.77 -22.02,-34.85l0 -1127.21 10.36 11.13z"/>
  <path class="fil3" d="M7810.99 5161.37l0 -473.94c0,-27.75 -5.18,-54.13 -15.54,-79.13 -10.36,-25 -24.17,-46.78 -41.44,-65.32 -17.27,-18.54 -36.69,-33 -58.28,-43.37 -21.58,-10.37 -42.74,-13.88 -63.46,-10.51l-606.07 98.43c-24.17,3.93 -50.08,13.47 -77.7,28.63 -27.63,15.16 -53.53,34.85 -77.7,59.05 -24.17,24.21 -44.46,51.52 -60.86,81.93 -16.4,30.42 -24.6,62.71 -24.6,96.87l0 858.22c0,23.48 6.47,42.18 19.42,56.09 12.95,13.91 28.92,24.12 47.92,30.65 18.99,6.52 39.28,10.17 60.87,10.93 21.58,0.76 41.87,-0.39 60.86,-3.48l505.05 -82.02 0 698.1 -367.78 59.73 0 -243.38c0,-23.48 5.61,-40.94 16.84,-52.37 11.22,-11.43 23.74,-21.47 37.56,-30.11l7.77 -4.47c6.91,-3.26 22.45,-8.98 46.62,-17.18 24.17,-8.19 39.71,-14.99 46.62,-20.38l0 -80.06 -481.74 78.24 0 477.14c0,27.75 5.61,54.06 16.83,78.93 11.22,24.86 25.47,46.57 42.74,65.11 17.27,18.54 36.69,33 58.28,43.37 21.58,10.37 42.74,13.88 63.46,10.51l606.07 -98.43c22.45,-3.64 47.92,-13.12 76.41,-28.42 28.49,-15.3 54.39,-34.45 77.7,-57.45 23.31,-23 43.17,-49.71 59.57,-80.13 16.4,-30.42 24.6,-63.77 24.6,-100.06l0 -858.22c0,-21.35 -6.48,-41.11 -19.42,-59.29 -12.95,-18.18 -29.36,-32.59 -49.21,-43.24 -19.86,-10.65 -40.58,-18.5 -62.16,-23.53 -21.58,-5.04 -40.14,-6.29 -55.68,-3.77l-497.29 80.76 0 -662.87 362.6 -58.89 0 243.38c0,12.81 -2.59,22.84 -7.77,30.08 -5.18,7.24 -11.22,14.63 -18.13,22.16l-51.8 37.23c-5.18,2.98 -18.13,8.28 -38.85,15.92 -20.72,7.63 -34.53,14.15 -41.44,19.54l0 76.86 479.15 -77.82z"/>
  <path class="fil3" d="M11755.61 5932.98l0 76.86 611.25 -99.27 0 -76.85 -101.01 -6.01 -28.49 -30.6 0 -1921.38 28.49 -39.85 101.01 -38.82 0 -76.86 -611.25 99.27 0 76.86c5.18,3.43 18.13,5.6 38.85,6.5 20.72,0.9 34.54,1.86 41.44,2.88 6.91,3.15 18.13,6.13 33.67,8.94 15.54,2.81 23.31,11.69 23.31,26.64l0 1902.17c0,14.94 -7.77,26.35 -23.31,34.21 -15.54,7.86 -26.76,14.49 -33.67,19.88 -6.91,3.26 -20.72,8.7 -41.44,16.33 -20.72,7.64 -33.67,14.01 -38.85,19.12z"/>
  <path class="fil3" d="M12675.07 5847.7c6.91,3.15 19.42,4.32 37.56,3.51 18.13,-0.81 28.92,-1.5 32.38,-2.06l549.09 -89.17c22.45,-3.65 47.92,-13.12 76.41,-28.42 28.49,-15.3 54.39,-34.45 77.7,-57.45 23.31,-23 43.17,-49.71 59.57,-80.13 16.4,-30.42 24.61,-63.77 24.61,-100.07l0 -1735.65c0,-27.75 -4.75,-54.73 -14.25,-80.95 -9.5,-26.21 -22.02,-48.73 -37.56,-67.55 -15.54,-18.83 -33.67,-32.96 -54.39,-42.4 -20.72,-9.45 -42.3,-12.34 -64.75,-8.7l-686.36 111.46c-17.27,2.81 -36.69,10.77 -58.28,23.88 -21.58,13.11 -41.44,29.15 -59.57,48.1 -18.13,18.95 -33.67,40.69 -46.62,65.21 -12.95,24.52 -19.42,48.52 -19.42,72l0 1796.49c0,27.75 6.48,52.32 19.42,73.7 12.95,21.38 28.49,39.14 46.62,53.27 18.13,14.13 37.99,25.32 59.57,33.56 21.58,8.24 41.01,12.02 58.28,11.35zm155.4 -294.23l0 -1652.39 372.96 -60.57 0 1652.39 -372.96 60.57z"/>
  <path class="fil3" d="M14135.84 4351.96l699.31 1157.74 238.28 -38.7 0 -2033.46c0,-10.67 5.61,-22.79 16.84,-36.36 11.22,-13.56 21.15,-23.18 29.79,-28.85 3.45,-0.56 9.93,-2.68 19.42,-6.36 9.5,-3.68 19.43,-7.43 29.79,-11.24 10.36,-3.82 20.29,-7.56 29.78,-11.24 9.5,-3.68 16.84,-7 22.02,-9.98l-10.36 -75.17 -505.05 82.02 0 1284.12 -663.05 -1176.44 -380.73 61.83 0 76.85c5.18,1.3 15.11,2.35 29.78,3.17 14.68,0.82 30.22,2.03 46.62,3.64 16.4,1.61 30.65,5.7 42.74,12.27 12.08,6.58 18.13,16.27 18.13,29.08l0 1886.15c0,17.08 -6.04,31.4 -18.13,42.98 -12.09,11.57 -26.33,20.82 -42.74,27.76 -16.4,6.93 -31.94,12.13 -46.62,15.58 -14.68,3.45 -24.6,5.6 -29.78,6.44l0 86.46 600.89 -97.59 0 -76.86c0,-4.27 -7.34,-6.81 -22.02,-7.63 -14.68,-0.82 -30.22,-2.03 -46.62,-3.64 -16.4,-1.61 -31.94,-5.48 -46.62,-11.64 -14.68,-6.16 -22.01,-17.77 -22.01,-34.85l0 -1127.21 10.36 11.13z"/>
  <path class="fil3" d="M5843.18 9031.7l-82.05 12.48 0 151.22 -105.79 16.08 0 -153.93 -271.25 41.24 0 -102.4 305.16 -473.61 71.88 -10.93 0 431.28 82.05 -12.47 0 101.04zm-187.84 -72.48l0 -290.91 -3.38 0.51 -204.8 322.05 208.18 -31.65z"/>
  <path class="fil3" d="M6413.47 8412.66l-217.68 732.24 -63.07 -7.37 180.38 -607.22c-10.4,2.03 -41.82,6.36 -94.26,12.97 -57.86,6.99 -89.74,10.94 -95.61,11.83 -35.72,5.43 -62.84,16.33 -81.37,32.72 -13.11,12.39 -26.67,33.89 -40.69,64.5l-23.73 -8.6c26.22,-62.86 47.92,-121.08 65.1,-174.68l370.93 -56.4z"/>
  <path class="fil3" d="M6970.88 8845.68c0,43.93 -16.5,85.61 -49.5,125.04 -37.07,45.04 -85.44,72.1 -145.12,81.17 -64.65,9.83 -116.86,1.92 -156.65,-23.74 -39.78,-25.66 -59.67,-63.17 -59.67,-112.54 0,-67.49 44.04,-138.72 132.12,-213.71l-37.94 -24.68c-54.65,-36.36 -81.98,-82.52 -81.98,-138.46 0,-50.99 19.66,-94.13 59,-129.44 35.26,-32.43 79.11,-52.63 131.56,-60.61 53.35,-8.11 97.42,-3.31 132.23,14.41 38.88,20.25 58.32,53.84 58.32,100.75 0,56.83 -46.06,120.23 -138.18,190.17l58.51 37.98c33.57,22.06 57.16,42.7 70.77,61.92 17.69,24.48 26.53,55.06 26.53,91.74zm-110.53 -369.41c0,-69.62 -33.9,-99.28 -101.69,-88.97 -29.64,4.51 -53.67,18.33 -72.07,41.48 -16.61,21.06 -24.92,43.8 -24.92,68.21 0,34.81 21.72,66.99 65.17,96.56l51.06 35.64c54.97,-45.43 82.45,-96.4 82.45,-152.91zm23.73 416.83c0,-41.59 -28.17,-81.16 -84.52,-118.7l-67.62 -45.32c-50.47,37.51 -75.71,88.14 -75.71,151.88 0,99.01 41.37,142.22 124.1,129.64 30.29,-4.6 55.15,-18.22 74.59,-40.84 19.44,-22.62 29.16,-48.17 29.16,-76.65z"/>
  <polygon class="fil3" points="7300.45,8887.76 7196.36,9007.68 7092.27,8919.42 7196.36,8798.82 "/>
  <path class="fil3" d="M7873.46 8190.67l-217.67 732.23 -63.07 -7.36 180.38 -607.22c-10.4,2.03 -41.82,6.36 -94.26,12.98 -57.86,6.99 -89.74,10.93 -95.61,11.82 -35.72,5.43 -62.84,16.34 -81.37,32.72 -13.11,12.39 -26.67,33.89 -40.69,64.51l-23.73 -8.6c26.22,-62.86 47.92,-121.08 65.1,-174.68l370.93 -56.4z"/>
  <path class="fil3" d="M8455.96 8634.43l-82.05 12.47 0 151.22 -105.79 16.08 0 -153.93 -271.25 41.24 0 -102.4 305.15 -473.61 71.88 -10.93 0 431.28 82.05 -12.48 0 101.04zm-187.84 -72.48l0 -290.91 -3.38 0.51 -204.8 322.05 208.18 -31.66z"/>
  <path class="fil3" d="M9006.59 8018.38l-44.18 110.47 -208 31.63 -30.59 73.82c54.39,-8.27 109,2.17 163.84,31.3 72.06,38.71 108.08,100.5 108.08,185.38 0,94.36 -30.11,166.44 -90.34,216.23 -60.23,49.79 -119.78,79.17 -178.66,88.12 -35.77,5.44 -65.54,2.62 -89.32,-8.46 -23.78,-11.08 -35.67,-27.69 -35.67,-49.84 0,-36.17 19.44,-57.2 58.32,-63.12 17.63,-2.68 39.22,3.87 64.76,19.65 25.54,15.78 49.84,21.92 72.9,18.42 28.93,-4.4 53.57,-18.75 73.92,-43.05 23.06,-27.41 34.58,-61.65 34.58,-102.71 0,-123.17 -97.2,-177.65 -291.59,-163.43l131.79 -304.85 260.16 -39.56z"/>
  <polygon class="fil3" points="9336.83,8578.14 9232.74,8698.05 9128.65,8609.79 9232.74,8489.19 "/>
  <path class="fil3" d="M9890.18 7884.04l-44.18 110.47 -208 31.62 -30.59 73.82c54.39,-8.27 109,2.16 163.84,31.3 72.06,38.71 108.08,100.5 108.08,185.38 0,94.36 -30.11,166.44 -90.34,216.23 -60.23,49.79 -119.78,79.16 -178.66,88.12 -35.77,5.44 -65.54,2.62 -89.32,-8.46 -23.78,-11.08 -35.67,-27.69 -35.67,-49.85 0,-36.16 19.44,-57.2 58.32,-63.11 17.63,-2.68 39.22,3.87 64.76,19.65 25.54,15.78 49.84,21.92 72.9,18.41 28.93,-4.4 53.57,-18.75 73.92,-43.04 23.06,-27.42 34.58,-61.65 34.58,-102.71 0,-123.17 -97.2,-177.65 -291.59,-163.43l131.79 -304.85 260.16 -39.56z"/>
  <path class="fil3" d="M10466.58 7796.4l-44.18 110.47 -208 31.63 -30.59 73.82c54.38,-8.27 109,2.16 163.84,31.3 72.05,38.71 108.08,100.5 108.08,185.38 0,94.36 -30.11,166.44 -90.34,216.23 -60.23,49.79 -119.78,79.16 -178.66,88.12 -35.77,5.44 -65.54,2.62 -89.32,-8.46 -23.78,-11.08 -35.66,-27.69 -35.66,-49.84 0,-36.17 19.44,-57.21 58.32,-63.12 17.63,-2.68 39.22,3.87 64.76,19.65 25.54,15.78 49.84,21.92 72.9,18.42 28.93,-4.4 53.57,-18.75 73.91,-43.05 23.06,-27.41 34.58,-61.65 34.58,-102.71 0,-123.17 -97.2,-177.65 -291.59,-163.43l131.79 -304.85 260.16 -39.56z"/>
  <path class="fil3" d="M11075.53 8045.58c0,109.85 -21.59,199.37 -64.76,268.55 -43.17,69.18 -100.7,109.23 -172.58,120.16 -71.88,10.93 -129.07,-11.34 -171.56,-66.82 -43.85,-56.62 -65.78,-139.86 -65.78,-249.72 0,-109.4 21.93,-199.31 65.78,-269.72 42.5,-68.4 99.68,-108.06 171.56,-118.99 71.88,-10.93 129.3,11.31 172.24,66.71 43.4,57.14 65.1,140.42 65.1,249.82zm-124.09 18.53c0,-205.47 -37.75,-302.47 -113.25,-290.99 -75.5,11.48 -113.24,119.95 -113.24,325.42 0,205.92 37.75,303.14 113.24,291.66 75.5,-11.48 113.25,-120.18 113.25,-326.1z"/>
  <path class="fil3" d="M11619.37 7621.12l-44.18 110.47 -208 31.63 -30.59 73.82c54.38,-8.27 109,2.17 163.84,31.3 72.06,38.71 108.09,100.5 108.09,185.38 0,94.36 -30.11,166.44 -90.34,216.23 -60.23,49.79 -119.78,79.16 -178.66,88.12 -35.77,5.44 -65.54,2.62 -89.32,-8.46 -23.78,-11.08 -35.66,-27.69 -35.66,-49.84 0,-36.17 19.44,-57.21 58.32,-63.12 17.63,-2.68 39.21,3.87 64.76,19.65 25.54,15.78 49.84,21.92 72.9,18.41 28.93,-4.4 53.57,-18.75 73.91,-43.04 23.06,-27.42 34.58,-61.65 34.58,-102.71 0,-123.17 -97.2,-177.65 -291.59,-163.43l131.79 -304.85 260.16 -39.56z"/>
 </g>
</svg>
